<svg xmlns="http://www.w3.org/2000/svg" viewBox="27.25 27.25 341 55.5">
  <g id="Text_Paths" stroke="#FFFFFF" stroke-width="4.5" fill="none" stroke-linecap="round" stroke-linejoin="round">

    <path d="M 30 30 L 55 80 L 80 30" />

    <path d="M 155.5 55 A 25 25 0 1 0 155.5 55.1" />

    <path d="M 185.5 30 L 185.5 80 M 185.5 30 L 205.5 30 A 15 15 0 0 1 205.5 60 L 185.5 60 M 205.5 60 L 220.5 80" />

    <path d="M 255.5 30 L 255.5 80 M 255.5 30 L 275.5 30 A 12.5 12.5 0 0 1 275.5 55 L 255.5 55 M 255.5 55 L 275.5 55 A 12.5 12.5 0 0 1 275.5 80 L 255.5 80" />

    <path d="M 315.5 80 L 340.5 30 L 365.5 80" />
  </g>

  <path id="Green_Accent" d="M 330.5 80 L 340.5 60 L 350.5 80 Z" fill="#2ECC71" stroke="none"/>

</svg>
